<?xml version="1.0" encoding="iso-8859-1"?>
<!-- Generator: Adobe Illustrator 19.0.0, SVG Export Plug-In . SVG Version: 6.00 Build 0)  -->
<svg xmlns="http://www.w3.org/2000/svg" xmlns:xlink="http://www.w3.org/1999/xlink" version="1.1" id="Layer_1" x="0px" y="0px" viewBox="0 0 386.419 386.419" style="enable-background:new 0 0 386.419 386.419;" xml:space="preserve" width="512" height="512">
<g>
	<path style="fill:#00B3E3;" d="M378.919,42.229c0-11-9-20-20-20H27.5c-11,0-20,9-20,20V252.19c0,11,9,20,20,20h331.419   c11,0,20-9,20-20V42.229z"/>
	<g>
		<g>
			<circle style="fill:#A77F73;" cx="215.779" cy="156.215" r="69.922"/>
		</g>
	</g>
	<g>
		<path style="fill:#0071CE;" d="M291.348,248.289H95.071c-10.493,0-19-8.506-19-19s8.507-19,19-19h196.277c10.493,0,19,8.506,19,19    S301.841,248.289,291.348,248.289z"/>
	</g>
	<g>
		<path style="fill:#0071CE;" d="M291.348,248.289H95.071c-10.493,0-19-8.506-19-19s8.507-19,19-19h196.277c10.493,0,19,8.506,19,19    S301.841,248.289,291.348,248.289z"/>
	</g>
	<g>
		<path style="fill:#FFFFFF;" d="M320.21,236.789h-9.862c-4.142,0-7.5-3.358-7.5-7.5c0-4.142,3.358-7.5,7.5-7.5h2.362V72.63h-239    v149.158h2.361c4.142,0,7.5,3.358,7.5,7.5c0,4.142-3.358,7.5-7.5,7.5H66.21c-4.142,0-7.5-3.358-7.5-7.5V65.13    c0-4.142,3.358-7.5,7.5-7.5h254c4.142,0,7.5,3.358,7.5,7.5v164.158C327.71,233.431,324.352,236.789,320.21,236.789z"/>
		<path d="M358.919,14.729H27.5c-15.163,0-27.5,12.337-27.5,27.5V252.19c0,15.163,12.337,27.5,27.5,27.5h80.628    c1.514,23.599,1.073,50.6,0.768,69.121c-0.1,6.092-0.187,11.352-0.187,15.379c0,4.142,3.358,7.5,7.5,7.5    c4.142,0,7.5-3.358,7.5-7.5c0-3.543,0.071-8.167,0.158-13.496h34.842v13.496c0,4.142,3.358,7.5,7.5,7.5c4.142,0,7.5-3.358,7.5-7.5    v-13.496h39v13.496c0,4.142,3.358,7.5,7.5,7.5c4.142,0,7.5-3.358,7.5-7.5v-13.496h34.842c0.087,5.329,0.158,9.952,0.158,13.496    c0,4.142,3.358,7.5,7.5,7.5s7.5-3.358,7.5-7.5c0-4.027-0.086-9.287-0.186-15.379c-0.304-18.521-0.746-45.522,0.768-69.121h80.628    c15.163,0,27.5-12.337,27.5-27.5V42.229C386.419,27.066,374.082,14.729,358.919,14.729z M158.71,335.694h-34.617    c0.078-6.418,0.128-13.342,0.097-20.502h34.52V335.694z M158.71,300.192h-34.723c-0.16-6.889-0.426-13.8-0.841-20.502h35.563    V300.192z M158.71,264.69h-36.811c-0.332-3.074-0.709-6.049-1.136-8.901h37.946V264.69z M212.71,335.694h-39v-20.502h39V335.694z     M212.71,300.192h-39V279.69h39V300.192z M212.71,264.69h-39v-8.901h39V264.69z M227.71,335.694v-20.502h34.521    c-0.032,7.16,0.018,14.084,0.096,20.502H227.71z M262.432,300.192H227.71V279.69h35.564    C262.858,286.392,262.592,293.303,262.432,300.192z M264.52,264.69h-36.81v-8.901h37.947    C265.229,258.641,264.852,261.616,264.52,264.69z M274.72,240.789c-0.032-0.001-0.063,0-0.094,0h-54.368    c-0.016,0-0.032-0.002-0.048-0.002s-0.032,0.002-0.048,0.002h-53.903c-0.016,0-0.032-0.002-0.048-0.002s-0.032,0.002-0.048,0.002    h-54.338c-0.048,0-0.095-0.001-0.143,0H95.071c-6.341,0-11.5-5.159-11.5-11.5c0-6.341,5.159-11.5,11.5-11.5h196.277    c6.341,0,11.5,5.159,11.5,11.5c0,6.341-5.159,11.5-11.5,11.5H274.72z M255.348,165.591c5.351-8.12,13.158-14.351,22.272-17.776    c0.372,2.75,0.581,5.55,0.581,8.4c0,6.293-0.957,12.448-2.751,18.309L255.348,165.591z M269.365,188.234    c-3.218,5.376-7.262,10.286-12.049,14.555h-7.979c-2.094-7.738-2.12-15.788-0.097-23.498L269.365,188.234z M241.488,159.432    l-15.81-7.025l22.11-49.757c11.708,7.023,20.924,17.775,26.018,30.602C260.321,137.933,248.853,147.199,241.488,159.432z     M233.939,202.789h-30.648l16.296-36.674l15.813,7.026C232.444,182.803,231.951,192.933,233.939,202.789z M211.97,146.316    l-15.809-7.025c4.145-13.667,3.335-28.392-2.232-41.542c6.805-2.552,14.166-3.956,21.851-3.956c6.37,0,12.517,0.964,18.311,2.745    L211.97,146.316z M205.879,160.023l-19.003,42.766h-12.63c-7.361-6.565-12.973-14.65-16.513-23.603    c13.494-4.68,24.969-13.95,32.337-26.188L205.879,160.023z M182.301,133.131l-20.086-8.926    c4.647-7.748,10.925-14.407,18.358-19.503C184.134,113.758,184.74,123.723,182.301,133.131z M176.21,146.839    c-5.349,8.118-13.155,14.349-22.267,17.775c-0.372-2.765-0.585-5.566-0.585-8.399c0-6.37,0.964-12.518,2.745-18.311    L176.21,146.839z M371.419,252.19c0,6.892-5.607,12.5-12.5,12.5h-79.315c0.358-3.105,0.767-6.083,1.232-8.901h10.513    c14.612,0,26.5-11.888,26.5-26.5c0-14.612-11.888-26.5-26.5-26.5h-13.712c10.027-13.287,15.565-29.54,15.565-46.574    c0-42.691-34.731-77.422-77.422-77.422s-77.422,34.731-77.422,77.422c0,17.025,5.541,33.284,15.568,46.574H95.071    c-14.612,0-26.5,11.888-26.5,26.5c0,14.612,11.888,26.5,26.5,26.5h10.513c0.465,2.818,0.874,5.796,1.231,8.901H27.5    c-6.893,0-12.5-5.608-12.5-12.5V42.229c0-6.893,5.607-12.5,12.5-12.5h331.419c6.893,0,12.5,5.607,12.5,12.5V252.19z"/>
	</g>
</g>















</svg>
