<svg id="Capa_1" enable-background="new 0 0 511.984 511.984" height="512" viewBox="0 0 511.984 511.984" width="512" xmlns="http://www.w3.org/2000/svg"><g><g><path d="m238.991 139.11v31.893h22.64l-7.64-65.142c-9.192 8.147-15 20.029-15 33.249z" fill="#eaf2fe"/><path d="m231.337 35.795c-7.961 0-14.438-6.477-14.438-14.438v-14.509h-30v14.51c0 24.503 19.935 44.438 44.438 44.438h30.295l-7.64-30h-22.655z" fill="#eaf2fe"/><path d="m337.805 35.795h-83.814v30h83.814c7.961 0 14.438 6.477 14.438 14.438s-6.478 14.438-14.438 14.438h-54.376c-11.284 0-21.593 4.235-29.438 11.189v65.142h15v-31.892c0-7.961 6.478-14.438 14.438-14.438h54.376c24.504 0 44.438-19.935 44.438-44.438.001-24.504-19.934-44.439-44.438-44.439z" fill="#d6e7fe"/></g><g><path d="m66.905 505.136c-8.762 0-17.507-1.72-25.72-5.139-14.836-6.178-26.96-17.498-34.139-31.875-7.18-14.378-8.943-30.871-4.967-46.442l40.394-158.177 165.65 68.976-83.806 140.1c-8.25 13.791-21.198 24.159-36.46 29.192-6.811 2.247-13.888 3.365-20.952 3.365z" fill="#00429b"/></g><g><path d="m445.079 505.136c-7.065 0-14.14-1.118-20.953-3.365-15.262-5.034-28.21-15.401-36.46-29.192l-83.806-140.1 165.65-68.976 40.394 158.177c3.977 15.571 2.213 32.064-4.967 46.442-7.179 14.377-19.303 25.698-34.138 31.875-8.212 3.419-16.959 5.139-25.72 5.139z" fill="#00337a"/></g><g><path d="m266.247 247.853h-90.896v-91.851h90.896z" fill="#d6e7fe"/></g><g><path d="m332.631 247.853h-78.64v-91.851h78.64z" fill="#accefd"/></g><g><path d="m144.767 217.853h121.48v147.149h-121.48z" fill="#00429b"/></g><g><path d="m253.991 217.853h109.225v147.149h-109.225z" fill="#00337a"/></g><g><g><g><path d="m126.969 383.928c-11.712 0-23.42-2.319-34.557-6.957-45.767-19.057-67.496-71.794-48.44-117.56 19.059-45.767 71.797-67.494 117.56-48.439 22.17 9.231 39.418 26.543 48.567 48.748 9.148 22.204 9.104 46.642-.128 68.812-9.231 22.169-26.544 39.418-48.748 48.567-11.049 4.552-22.653 6.829-34.254 6.829z" fill="#0052be"/></g><g><path d="m385.014 383.928c-11.603 0-23.204-2.276-34.254-6.829-22.204-9.149-39.517-26.397-48.748-48.567-9.231-22.17-9.276-46.607-.128-68.812 9.149-22.204 26.397-39.516 48.567-48.748 45.764-19.054 98.502 2.673 117.56 48.439 19.056 45.766-2.674 98.502-48.44 117.56-11.136 4.637-22.847 6.956-34.557 6.957z" fill="#00429b"/></g></g><path d="m155.091 278.972h-13.119v-13.12h-30v13.12h-13.12v30h13.12v13.119h30v-13.119h13.119z" fill="#eaf2fe"/><g><path d="m363.215 278.972h43.593v30h-43.593z" fill="#d6e7fe"/></g></g></g></svg>